<svg xmlns="http://www.w3.org/2000/svg" viewBox="0 0 280 350" width="280" height="350" role="img">
  <rect width="280" height="350" fill="#e4daba"/>
  <rect x="20" y="20" width="26" height="26" fill="#ad974f"/>
  <g><rect x="36" y="96" width="60" height="130" rx="3" fill="none" stroke="#ad974f" stroke-width="2"/><rect x="108" y="96" width="60" height="130" rx="3" fill="none" stroke="#ad974f" stroke-width="2"/><rect x="180" y="96" width="60" height="130" rx="3" fill="none" stroke="#ad974f" stroke-width="2"/><rect x="44" y="106" width="44" height="18" rx="2" fill="#ad974f"/><rect x="44" y="132" width="44" height="18" rx="2" fill="#ad974f"/><rect x="44" y="158" width="44" height="18" rx="2" fill="#ad974f"/><rect x="44" y="184" width="44" height="18" rx="2" fill="#ad974f"/><rect x="116" y="106" width="44" height="18" rx="2" fill="#ad974f" opacity="0.7"/><rect x="116" y="132" width="44" height="18" rx="2" fill="#ad974f" opacity="0.7"/><rect x="188" y="106" width="44" height="18" rx="2" fill="#665726"/><text x="140" y="252" text-anchor="middle" font-family="Poppins,sans-serif" font-size="12" letter-spacing="1" fill="#665726">SCRUM &#8594; SCRUMBAN</text></g>
  <text x="20" y="326" font-family="Poppins, 'Segoe UI', sans-serif" font-size="13"
        font-weight="600" letter-spacing="1.6" fill="#665726">COACHING</text>
  <rect x="20" y="304" width="46" height="2" fill="#ad974f"/>
</svg>
